<?xml version="1.0" encoding="utf-8"?>
<!-- Generator: Adobe Illustrator 25.4.1, SVG Export Plug-In . SVG Version: 6.00 Build 0)  -->
<svg version="1.1" id="Graphic_Elements" xmlns="http://www.w3.org/2000/svg" xmlns:xlink="http://www.w3.org/1999/xlink" x="0px"
	 y="0px" viewBox="0 0 1384 358" style="enable-background:new 0 0 1384 358;" xml:space="preserve">
<style type="text/css">
	.st0{fill:#D36731;}
	.st1{fill:#BABABA;}
</style>
<g>
	<g>
		<path class="st0" d="M1268.35,62.89c14.42,0,26.12,21.94,26.12,40.53c0,18.59-11.69,33.66-26.12,33.66s-26.12-15.07-26.12-33.66
			C1242.23,84.84,1253.93,62.89,1268.35,62.89z"/>
		<path class="st0" d="M1194.15,62.89c14.42,0,26.12,21.94,26.12,40.53c0,18.59-11.69,33.66-26.12,33.66
			c-14.42,0-26.12-15.07-26.12-33.66C1168.03,84.84,1179.72,62.89,1194.15,62.89z"/>
		<path class="st0" d="M1115.94,160.94c-6.13-15.33-3.44-37.39,8.78-42.28c12.23-4.88,29.37,9.26,35.49,24.59
			c6.13,15.33,1.18,31.73-11.05,36.61C1136.94,184.74,1122.06,176.27,1115.94,160.94z"/>
		<path class="st0" d="M1346.56,160.94c-6.13,15.33-21,23.81-33.23,18.92c-12.23-4.88-17.17-21.27-11.05-36.61
			c6.13-15.33,23.27-29.47,35.49-24.59C1350,123.54,1352.69,145.6,1346.56,160.94z"/>
		<path class="st0" d="M1324.68,245.64c-2.8-12.56-9.48-23.89-16.86-34.38c-17.3-24.59-45.02-49.42-76.57-49.42
			c-31.42,0-59.26,24.83-76.57,49.42c-7.39,10.5-14.06,21.82-16.86,34.38c-2.8,12.56-1.27,26.6,6.51,36.81s22.52,15.3,34.04,9.77
			c6.85-3.28,12.4-9.91,19.96-10.54c6.94-0.58,13.07,4.09,18.86,8c4.18,2.82,9.23,5.39,14.06,5.43c4.83-0.03,9.87-2.6,14.06-5.43
			c5.79-3.91,11.92-8.58,18.86-8c7.56,0.64,13.1,7.26,19.96,10.54c11.53,5.52,26.26,0.43,34.04-9.77S1327.48,258.2,1324.68,245.64z
			 M1258.73,230.51c-3.56,6.5-9.18,12.23-13.92,16.69c-2.55,2.4-5.23,4.64-8.02,6.71c-0.01,0-0.01,0.01-0.02,0.01
			c-3.28,2.41-7.77,2.41-11.05,0c-0.01,0-0.01-0.01-0.02-0.01c-2.79-2.07-5.47-4.32-8.02-6.71c-4.74-4.46-10.36-10.19-13.92-16.69
			c-2.94-5.37-4.48-11.27-2.95-17.42c1.46-5.89,6.11-11.07,11.81-11.79c6.6-0.84,14.27,3.81,18.62,9.14
			c4.35-5.33,12.03-9.97,18.62-9.14c5.7,0.72,10.36,5.9,11.81,11.79C1263.21,219.24,1261.67,225.14,1258.73,230.51z"/>
	</g>
	<g>
		<path class="st1" d="M146.56,96.12c-20.05-21.18-53.95-24.34-72.37-24.34c-12.88,0-39.69,0-39.69,26.7l-0.22,174.58
			c0,14.35,8.97,20.89,17.31,20.89c9.5,0,19.32-7.81,19.32-20.89v-62.4c27.05,0.46,52.52-7.7,68.92-22.31
			c13.5-12.03,20.89-27.72,21.95-46.63C162.78,123.19,157.67,107.84,146.56,96.12z M125.59,139.38
			c-0.39,27.44-33.21,34.69-50.51,34.69c-1.4,0-2.8-0.07-4.18-0.2v-65.4c2.78-0.18,5.71-0.27,8.65-0.27
			c17.72,0,31.56,4.15,38.98,11.69C123.41,124.83,125.72,131.21,125.59,139.38z"/>
		<path class="st1" d="M252.34,236.06c-5.44,0-10.58,2.75-14.49,7.77c-8.35,10.88-16.23,15.73-25.58,15.73
			c-15.39,0-22.92-16.32-24.93-29.79l62.88-2.06c11.81-0.29,17.19-12.65,17.19-24.02c0-15.32-5.32-29.75-14.97-40.64
			c-10.21-11.51-24.39-17.85-39.94-17.85c-19.58,0-35.98,8.29-47.43,23.99c-9.88,13.53-15.31,31.67-15.31,51.07
			c0,19.06,5.19,36.91,14.62,50.28c10.92,15.48,26.48,23.66,44.99,23.66c28.86,0,44.93-17.85,54.51-28.5
			c5.26-5.78,6.71-13.05,3.88-19.44C265.06,240.15,258.87,236.06,252.34,236.06z M192.22,193.4c4.19-7.66,11.34-14.26,21.4-14.26
			c6.25,0,13,4.02,15.6,12.86c-7.27,1.02-16.47,1.54-27.46,1.54C198.53,193.54,195.25,193.49,192.22,193.4z"/>
		<path class="st1" d="M359.32,150.34h-20.96V92.45c0-13.86-9.38-21.34-18.21-21.34c-9.05,0-18.21,7.48-18.21,21.79v57.45h-20.07
			c-7,0-11.21,3.04-13.52,5.58c-2.88,3.19-4.47,7.49-4.47,12.11c0,9.07,6.38,18.71,18.21,18.71h19.83l-0.21,86.32
			c0,14.35,8.97,20.89,17.31,20.89c9.5,0,19.32-7.81,19.32-20.89v-86.32h20.96c6.78,0,10.8-3.03,12.98-5.57
			c2.66-3.1,4.12-7.29,4.12-11.82C376.43,160.01,370.03,150.34,359.32,150.34z"/>
		<path class="st1" d="M482.42,256.2h-67.96V92.89c0-13.86-9.38-21.34-18.21-21.34c-9.05,0-18.21,7.48-18.21,21.78l-0.22,171.67
			c0,6.83,0,27.61,27.38,27.61h77.22c6.78,0,10.8-3.03,12.98-5.57c2.66-3.1,4.12-7.29,4.12-11.82
			C499.53,265.88,493.13,256.2,482.42,256.2z"/>
		<path class="st1" d="M561.93,146.54l-3.64-0.01c-15.71,0-29.75,5.97-40.6,17.27c-13.85,14.42-21.9,37.45-21.02,60.13
			c0.04,40.05,25.46,68.02,61.85,68.02c18.75,0,34.61-7.62,45.86-22.03c9.75-12.49,15.4-29.44,15.91-47.72
			C621.28,186.27,601.56,148.75,561.93,146.54z M544.53,187.52c3.85-3.4,8.44-5.2,13.11-5.2c0.73,0,1.47,0.04,2.2,0.13
			c16.42,2.51,25.12,25.03,23.78,44.48c-1.03,14.9-8.3,30.88-25.61,31.06c-6.37,0.06-11.7-1.96-15.79-6.01
			c-6.01-5.95-9.59-16.56-9.59-28.38C532.63,202.47,539.1,192.32,544.53,187.52z"/>
		<path class="st1" d="M729.98,151.8c-3.47-4.84-9-7.73-14.8-7.73c-8.59,0-15.56,5.82-18.64,15.56l-23.49,73.46
			c-7.39-22.38-21.05-63.23-25.69-75.67c-2.91-7.94-9.02-12.68-16.33-12.68c-5.5,0-10.87,2.81-14.37,7.52
			c-3.9,5.24-4.97,12.1-2.94,18.87c7.27,23.52,26.41,80.99,37.06,106.92c3.65,9.12,12.5,15,22.55,15c11.03,0,20.44-6.88,23.99-17.5
			l34.91-103.62C734.75,164.5,733.95,157.34,729.98,151.8z"/>
		<path class="st1" d="M830.89,236.06c-5.44,0-10.58,2.75-14.49,7.77c-8.35,10.88-16.23,15.73-25.58,15.73
			c-15.39,0-22.92-16.32-24.93-29.79l62.88-2.06c11.81-0.29,17.19-12.65,17.19-24.02c0-15.32-5.32-29.75-14.97-40.64
			c-10.21-11.51-24.39-17.85-39.94-17.85c-19.58,0-35.98,8.29-47.43,23.99c-9.88,13.53-15.31,31.67-15.31,51.07
			c0,19.06,5.19,36.91,14.62,50.28c10.92,15.48,26.48,23.66,44.99,23.66c28.86,0,44.92-17.85,54.51-28.5
			c5.25-5.78,6.71-13.05,3.88-19.44C843.61,240.15,837.41,236.06,830.89,236.06z M770.77,193.4c4.19-7.66,11.34-14.26,21.4-14.26
			c6.25,0,13,4.02,15.6,12.86c-7.27,1.02-16.47,1.54-27.46,1.54C777.08,193.54,773.79,193.49,770.77,193.4z"/>
		<path class="st1" d="M914.06,145.64l-2.16,0c-7.44,0-17.6,1.73-26.03,6.38c-3.35-4.07-8.06-6.38-13.36-6.38
			c-9.49,0-19.1,7.79-19.1,22.68v103.85c0,13.81,8.69,20,17.31,20c9.4,0,19.55-7.64,19.55-20c0-5.22-0.21-11.24-0.43-17.61
			c-0.55-15.69-1.17-33.48,0.85-49.17c1.5-12.76,11.54-24.24,21.12-24.24c0.07,0,0.14,0,0.21,0c4.31,0.09,7.95,1.18,8.77,13.62
			c0.34,7.65,6.66,12.79,15.74,12.79c8.34,0,17.4-4.74,17.75-13.44c0.83-14.13-3.26-26.87-11.52-35.88
			C935.5,150.33,925.57,145.97,914.06,145.64z"/>
		<path class="st1" d="M1017.32,197.94c-15.63-1.84-23.02-3.32-23.21-8.97l0-0.06c-0.09-2.06,0.58-3.04,1.19-3.68
			c2.2-2.3,7.7-3.63,15.08-3.63c8.31,0,16.61,1.97,25.39,6.01c10.89,5.28,20.3,0.79,23.98-6.38c4.15-8.09,1.41-20.02-11.88-27.17
			c-10.3-5.49-23.64-8.65-36.6-8.65c-13.8,0-25.99,3.29-35.25,9.53c-10.99,7.4-17.17,18.59-17.87,32.41
			c-0.77,17.21,4.84,29.46,16.67,36.42c9.88,5.81,22.46,7.09,33.56,8.22c18.88,1.92,24.27,3.61,23.65,11.04
			c-0.69,7.1-7.89,14.29-20.32,14.29c-6.62,0-19.09-5.9-26.61-12.56c-3.49-3.2-7.29-4.9-10.99-4.9c-6.08,0-11.46,4.25-14.02,11.08
			c-2.66,7.08-2.17,17,4.89,23.18c12.97,11.51,32.46,18.94,49.65,18.94c33.06,0,50.7-24.48,53.1-47.27
			C1071.71,204.33,1038.98,200.48,1017.32,197.94z"/>
	</g>
</g>
</svg>
